# xmcd
#
# Track frame offsets: 
#        150
#        13218
#        33250
#        48648
#        70125
#        100155
#        143828
#        166733
#        185238
#        197450
#        221425
#        234138
#        258030
#
# Disc length: 3721 seconds
#
# Revision: 0
# Processed by: cddbd v1.5.2PL0 Copyright (c) Steve Scherf et al.
# Submitted via: ExactAudioCopy v1.0b1
#
DISCID=ab0e870d
DTITLE=Various Artist - Gottlob Frick - Portrait - CD 1
DYEAR=1967
DGENRE=Recital
TTITLE0=Mozart - Wer ein Liebchen hat gefunden
TTITLE1=Mozart - Solche hergelaufnen Laffen
TTITLE2=Mozart - O Isis und Osiris
TTITLE3=Mozart - In diesen heil'gen Hallen
TTITLE4=Lortzing - O sancta justitia, ich möchte rasen
TTITLE5=Lortzing - Den hohen Herrscher würdig zu empfangen
TTITLE6=Lortzing - Fünftausend Taler
TTITLE7=Lortzing - Auch ich war ein Jüngling mit lockigem Haar
TTITLE8=Lortzing - Ich war in meinen jungen Jahren
TTITLE9=Nicolai - Als Büblein klein an der Mutterbrust
TTITLE10=Flotow - Lasst mich euch fragen
TTITLE11=Flotow - Ja, was nun?
TTITLE12=Orff - O hätt' ich meiner Tocher nur geglaubt
EXTD=
EXTT0=
EXTT1=
EXTT2=
EXTT3=
EXTT4=
EXTT5=
EXTT6=
EXTT7=
EXTT8=
EXTT9=
EXTT10=
EXTT11=
EXTT12=
PLAYORDER=
